<svg data-name="Layer 1" xmlns="http://www.w3.org/2000/svg" viewBox="0 0 302 66"><path d="M32.59 1.54h21.29v7.94h-12.4v37.63h-8.89V1.54zm60.89 45.57l-8.89-18.18h-6.4v18.18H69.3V1.54h17.85c9.28 0 14.78 6.34 14.78 14a12.27 12.27 0 0 1-8.32 12l10.18 19.65zM86.57 9.48h-8.38v12h8.38c3.91 0 6.47-2.5 6.47-6s-2.56-6-6.47-6zm31.96 37.63V1.54h8.89v45.57zm47.23 0h-19.07V1.54H165c8.9 0 14.08 5 14.08 12.8a10.54 10.54 0 0 1-5.63 9.41c2.75 1.28 6.27 4.16 6.27 10.24-.01 8.51-5.83 13.12-13.96 13.12zm-1.47-37.63h-8.71V20h8.71c3.77 0 5.88-2.11 5.88-5.24s-2.11-5.28-5.88-5.28zm.57 18.52h-9.28v11.2h9.28c4 0 5.95-2.56 5.95-5.63S168.89 28 164.86 28zm46.96 19.49c-9.35 0-16.77-6.34-16.77-16V1.54H204v29.63c0 5.25 3.07 8.39 7.87 8.39s7.93-3.14 7.93-8.39V1.54h8.83v30c-.05 9.61-7.47 15.95-16.81 15.95zm52.31-38.01v37.63h-8.89V9.48h-11.91V1.54H276v7.94zm25.25 37.63V1.54h8.89v45.57zM23.77 10.32a8.8 8.8 0 0 0-7.1-2.95 8 8 0 0 0-6.12 2.79L6.2 6.72C8.66 3.61 11.81 1.29 16.37 1c5-.29 8.45 2.23 11.49 5.54z" fill="#006a65"/><path d="M33.21 58.61a23.85 23.85 0 0 1-22.89-16.89H3.73a30.26 30.26 0 0 0 48.71 16.35l-4.54-4.54a23.92 23.92 0 0 1-14.69 5.08z" fill="#8bc8a9"/></svg>